<?xml version="1.0" encoding="UTF-8" standalone="no"?><!DOCTYPE svg PUBLIC "-//W3C//DTD SVG 1.1//EN" "http://www.w3.org/Graphics/SVG/1.1/DTD/svg11.dtd"><svg width="100%" height="100%" viewBox="0 0 2250 2250" version="1.1" xmlns="http://www.w3.org/2000/svg" xmlns:xlink="http://www.w3.org/1999/xlink" xml:space="preserve" xmlns:serif="http://www.serif.com/" style="fill-rule:evenodd;clip-rule:evenodd;stroke-linejoin:round;stroke-miterlimit:2;"><rect x="0" y="0" width="2250" height="2250" style="fill:url(#_Linear1);"/><g><path d="M998.805,820.338c-2.911,-24.235 -4.41,-48.903 -4.41,-73.919c0,-142.761 48.796,-274.216 130.605,-378.58c81.809,104.364 130.605,235.819 130.605,378.58c-0,25.016 -1.499,49.684 -4.41,73.919c-42.776,54.457 -75.051,114.497 -96.824,177.379c-9.442,-2.173 -19.273,-3.322 -29.371,-3.322c-10.098,0 -19.929,1.149 -29.371,3.322c-21.773,-62.882 -54.048,-122.922 -96.824,-177.379Zm126.195,113.141c20.213,-46.427 45.97,-91.013 77.273,-132.746c1.711,-17.876 2.585,-35.993 2.585,-54.314c0,-105.696 -29.155,-204.638 -79.858,-289.209c-50.704,84.572 -79.858,183.513 -79.858,289.209c-0,18.321 0.874,36.439 2.585,54.315c31.303,41.732 57.061,86.318 77.273,132.745Z" style="fill:#fff;"/><path d="M1251.19,820.338c15.079,-19.196 31.462,-37.698 49.151,-55.386c100.947,-100.948 228.403,-159.396 360.048,-175.346c-15.95,131.645 -74.398,259.101 -175.346,360.048c-17.688,17.689 -36.19,34.072 -55.386,49.151c-68.763,8.261 -134.048,27.898 -193.915,56.972c-10.518,-16.781 -24.743,-31.006 -41.524,-41.524c29.074,-59.867 48.711,-125.152 56.972,-193.915Zm9.231,169.236c47.121,-18.536 96.861,-31.85 148.506,-39.225c13.849,-11.431 27.279,-23.623 40.233,-36.578c74.739,-74.738 124.085,-165.316 148.033,-260.969c-95.653,23.948 -186.231,73.294 -260.969,148.033c-12.955,12.955 -25.148,26.384 -36.579,40.234c-7.374,51.644 -20.687,101.384 -39.224,148.505Z" style="fill:#fff;"/><path d="M1251.19,1429.66c2.911,24.235 4.41,48.903 4.41,73.919c-0,142.761 -48.796,274.216 -130.605,378.58c-81.809,-104.364 -130.605,-235.819 -130.605,-378.58c0,-25.016 1.499,-49.684 4.41,-73.919c42.776,-54.457 75.051,-114.497 96.824,-177.379c9.442,2.173 19.273,3.322 29.371,3.322c10.098,-0 19.929,-1.149 29.371,-3.322c21.773,62.882 54.048,122.922 96.824,177.379Zm-126.195,-113.141c-20.213,46.427 -45.97,91.013 -77.273,132.746c-1.711,17.876 -2.585,35.993 -2.585,54.314c-0,105.696 29.155,204.638 79.858,289.209c50.704,-84.572 79.858,-183.513 79.858,-289.209c0,-18.321 -0.874,-36.439 -2.585,-54.315c-31.303,-41.732 -57.061,-86.318 -77.273,-132.745Z" style="fill:#fff;"/><path d="M998.805,1429.66c-15.079,19.196 -31.462,37.698 -49.151,55.386c-100.947,100.948 -228.403,159.396 -360.048,175.346c15.95,-131.645 74.398,-259.101 175.346,-360.048c17.688,-17.689 36.19,-34.072 55.386,-49.151c68.763,-8.261 134.048,-27.898 193.915,-56.972c10.518,16.781 24.743,31.006 41.524,41.524c-29.074,59.867 -48.711,125.152 -56.972,193.915Zm-9.231,-169.236c-47.121,18.536 -96.861,31.85 -148.506,39.225c-13.849,11.431 -27.279,23.623 -40.233,36.578c-74.739,74.738 -124.085,165.316 -148.033,260.969c95.653,-23.948 186.231,-73.294 260.969,-148.033c12.955,-12.955 25.148,-26.384 36.579,-40.234c7.374,-51.644 20.687,-101.384 39.224,-148.505Z" style="fill:#fff;"/><path d="M820.338,1251.19c-24.235,2.911 -48.903,4.41 -73.919,4.41c-142.761,-0 -274.216,-48.796 -378.58,-130.605c104.364,-81.809 235.819,-130.605 378.58,-130.605c25.016,0 49.684,1.499 73.919,4.41c54.457,42.776 114.497,75.051 177.379,96.824c-2.173,9.442 -3.322,19.273 -3.322,29.371c0,10.098 1.149,19.929 3.322,29.371c-62.882,21.773 -122.922,54.048 -177.379,96.824Zm113.141,-126.195c-46.427,-20.213 -91.013,-45.97 -132.746,-77.273c-17.876,-1.711 -35.993,-2.585 -54.314,-2.585c-105.696,-0 -204.638,29.155 -289.209,79.858c84.572,50.704 183.513,79.858 289.209,79.858c18.321,0 36.439,-0.874 54.315,-2.585c41.732,-31.303 86.318,-57.061 132.745,-77.273Z" style="fill:#fff;"/><path d="M820.338,998.805c-19.196,-15.079 -37.698,-31.462 -55.386,-49.151c-100.948,-100.947 -159.396,-228.403 -175.346,-360.048c131.645,15.95 259.101,74.398 360.048,175.346c17.689,17.688 34.072,36.19 49.151,55.386c8.261,68.763 27.898,134.048 56.972,193.915c-16.781,10.518 -31.006,24.743 -41.524,41.524c-59.867,-29.074 -125.152,-48.711 -193.915,-56.972Zm169.236,-9.231c-18.536,-47.121 -31.85,-96.861 -39.225,-148.506c-11.431,-13.849 -23.623,-27.279 -36.578,-40.233c-74.738,-74.739 -165.316,-124.085 -260.969,-148.033c23.948,95.653 73.294,186.231 148.033,260.969c12.955,12.955 26.384,25.148 40.234,36.579c51.644,7.374 101.384,20.687 148.505,39.224Z" style="fill:#fff;"/><path d="M1429.66,998.805c24.235,-2.911 48.903,-4.41 73.919,-4.41c142.761,0 274.216,48.796 378.58,130.605c-104.364,81.809 -235.819,130.605 -378.58,130.605c-25.016,-0 -49.684,-1.499 -73.919,-4.41c-54.457,-42.776 -114.497,-75.051 -177.379,-96.824c2.173,-9.442 3.322,-19.273 3.322,-29.371c-0,-10.098 -1.149,-19.929 -3.322,-29.371c62.882,-21.773 122.922,-54.048 177.379,-96.824Zm-113.141,126.195c46.427,20.213 91.013,45.97 132.746,77.273c17.876,1.711 35.993,2.585 54.314,2.585c105.696,0 204.638,-29.155 289.209,-79.858c-84.572,-50.704 -183.513,-79.858 -289.209,-79.858c-18.321,-0 -36.439,0.874 -54.315,2.585c-41.732,31.303 -86.318,57.061 -132.745,77.273Z" style="fill:#fff;"/><path d="M1429.66,1251.19c19.196,15.079 37.698,31.462 55.386,49.151c100.948,100.947 159.396,228.403 175.346,360.048c-131.645,-15.95 -259.101,-74.398 -360.048,-175.346c-17.689,-17.688 -34.072,-36.19 -49.151,-55.386c-8.261,-68.763 -27.898,-134.048 -56.972,-193.915c16.781,-10.518 31.006,-24.743 41.524,-41.524c59.867,29.074 125.152,48.711 193.915,56.972Zm-169.236,9.231c18.536,47.121 31.85,96.861 39.225,148.506c11.431,13.849 23.623,27.279 36.578,40.233c74.738,74.739 165.316,124.085 260.969,148.033c-23.948,-95.653 -73.294,-186.231 -148.033,-260.969c-12.955,-12.955 -26.384,-25.148 -40.234,-36.579c-51.644,-7.374 -101.384,-20.687 -148.505,-39.224Z" style="fill:#fff;"/></g><path d="M1125,266.547c473.793,-0 858.453,384.66 858.453,858.453c0,473.793 -384.66,858.453 -858.453,858.453c-473.793,0 -858.453,-384.66 -858.453,-858.453c-0,-473.793 384.66,-858.453 858.453,-858.453Zm-0,45.833c-448.497,-0 -812.62,364.123 -812.62,812.62c-0,448.497 364.123,812.62 812.62,812.62c448.497,0 812.62,-364.123 812.62,-812.62c0,-448.497 -364.123,-812.62 -812.62,-812.62Z" style="fill:#fff;"/><path d="M542.217,991.765c15.136,-66.376 41.333,-128.563 76.547,-184.513c7.894,15.702 16.464,31.151 25.712,46.301c-21.85,38.566 -39.19,80.016 -51.303,123.632c-17.264,4.18 -34.259,9.05 -50.956,14.58Zm50.956,281.05c12.113,43.616 29.453,85.066 51.303,123.632c-9.248,15.15 -17.818,30.599 -25.712,46.301c-35.214,-55.95 -61.411,-118.137 -76.547,-184.513c16.697,5.53 33.692,10.4 50.956,14.58Zm260.38,332.709c38.566,21.85 80.016,39.19 123.632,51.303c4.18,17.264 9.05,34.259 14.58,50.956c-66.376,-15.136 -128.563,-41.333 -184.513,-76.547c15.702,-7.894 31.151,-16.464 46.301,-25.712Zm419.262,51.303c43.616,-12.113 85.066,-29.453 123.632,-51.303c15.15,9.248 30.599,17.818 46.301,25.712c-55.95,35.214 -118.137,61.411 -184.513,76.547c5.53,-16.697 10.4,-33.692 14.58,-50.956Zm332.709,-260.38c21.85,-38.566 39.19,-80.016 51.303,-123.632c17.264,-4.18 34.259,-9.05 50.956,-14.58c-15.136,66.376 -41.333,128.563 -76.547,184.513c-7.894,-15.702 -16.464,-31.151 -25.712,-46.301Zm51.303,-419.262c-12.113,-43.616 -29.453,-85.066 -51.303,-123.632c9.248,-15.15 17.818,-30.599 25.712,-46.301c35.214,55.95 61.411,118.137 76.547,184.513c-16.697,-5.53 -33.692,-10.4 -50.956,-14.58Zm-260.38,-332.709c-38.566,-21.85 -80.016,-39.19 -123.632,-51.303c-4.18,-17.264 -9.05,-34.259 -14.58,-50.956c66.376,15.136 128.563,41.333 184.513,76.547c-15.702,7.894 -31.151,16.464 -46.301,25.712Zm-419.262,-51.303c-43.616,12.113 -85.066,29.453 -123.632,51.303c-15.15,-9.248 -30.599,-17.818 -46.301,-25.712c55.95,-35.214 118.137,-61.411 184.513,-76.547c-5.53,16.697 -10.4,33.692 -14.58,50.956Z" style="fill:#fff;"/><defs><linearGradient id="_Linear1" x1="0" y1="0" x2="1" y2="0" gradientUnits="userSpaceOnUse" gradientTransform="matrix(2250,0,0,2250,0,1125)"><stop offset="0" style="stop-color:#56ccf2;stop-opacity:1"/><stop offset="1" style="stop-color:#2f80ed;stop-opacity:1"/></linearGradient></defs></svg>